<svg xmlns="http://www.w3.org/2000/svg" version="1.0" viewBox="0 0 100.000000 100.000000" preserveAspectRatio="xMidYMid meet" x="0px" y="0px"><metadata>
Created by potrace 1.12, written by Peter Selinger 2001-2015
</metadata><g transform="translate(0.000000,100.000000) scale(0.100000,-0.100000)" fill="#6ab344" stroke="none"><path d="M690 807 c-79 -63 -181 -202 -238 -325 l-25 -55 -39 77 c-38 75 -40 77 -61 63 -12 -8 -46 -29 -74 -46 -29 -18 -53 -34 -53 -36 0 -2 22 -17 48 -34 27 -17 80 -64 119 -104 l71 -72 38 60 c77 118 194 248 256 281 25 13 26 16 16 45 -6 19 -8 63 -5 110 4 44 5 79 4 79 -1 0 -27 -19 -57 -43z"></path></g></svg>