<svg xmlns="http://www.w3.org/2000/svg" xmlns:xlink="http://www.w3.org/1999/xlink" version="1.1" x="0px" y="0px" viewBox="0 0 100 100" enable-background="new 0 0 100 100" xml:space="preserve"><path stroke="white" stroke-width="4" d="M79.407,44.619l-2.543-0.185c-0.493-0.124-1.261-0.433-1.713-1.183c-0.59-2.206-1.461-4.292-2.574-6.225  c-0.23-0.856,0.093-1.627,0.354-2.07l1.679-1.937c0.425-0.426,0.425-1.119,0-1.542l-6.081-6.074c-0.422-0.428-1.114-0.428-1.54,0  l-1.908,1.645c-0.458,0.275-1.283,0.621-2.188,0.333c-1.824-1.041-3.786-1.866-5.85-2.448c-1.101-0.485-1.406-1.615-1.486-2.087  l-0.164-2.25c0-0.604-0.488-1.096-1.088-1.096h-8.598c-0.599,0-1.092,0.493-1.092,1.096l-0.182,2.514  c-0.116,0.488-0.417,1.282-1.185,1.742c-2.201,0.59-4.292,1.463-6.222,2.574c-0.843,0.231-1.599-0.075-2.046-0.337l-1.962-1.696  c-0.426-0.426-1.117-0.426-1.543,0l-6.077,6.081c-0.424,0.419-0.424,1.116,0,1.542l1.525,1.762c0.303,0.453,0.821,1.476,0.32,2.581  c-0.957,1.718-1.721,3.544-2.27,5.47l0.025-0.104c-0.432,1.329-1.745,1.651-2.223,1.726l-2.186,0.158  c-0.602,0-1.09,0.488-1.09,1.089v8.594c0,0.604,0.488,1.093,1.09,1.093l2.371,0.173c0.551,0.117,1.591,0.483,2.006,1.597  c0.551,1.937,1.321,3.782,2.282,5.504l-0.078-0.131c0.778,1.529-0.46,2.929-0.46,2.929l1.303-1.502l-2.623,3.032  c-0.427,0.423-0.427,1.115,0,1.54l6.077,6.075c0.427,0.427,1.117,0.427,1.542,0l1.676-1.447c0.336-0.249,1.338-0.878,2.477-0.501  c1.802,1.024,3.741,1.838,5.779,2.41c0.974,0.406,1.347,1.307,1.484,1.861l0.18,2.485c0,0.604,0.488,1.092,1.091,1.092h8.593  c0.604,0,1.093-0.488,1.093-1.092l0.168-2.33c0.103-0.52,0.427-1.535,1.452-2.003c2.067-0.578,4.038-1.399,5.866-2.441  c0.946-0.307,1.798,0.082,2.246,0.357l1.864,1.614c0.426,0.431,1.114,0.431,1.545,0l6.075-6.075c0.427-0.426,0.427-1.113,0-1.542  l-1.606-1.859c-0.271-0.417-0.662-1.231-0.421-2.147c1.083-1.876,1.935-3.904,2.52-6.037c0.436-0.901,1.301-1.245,1.833-1.371  l2.481-0.18c0.604,0,1.092-0.488,1.092-1.094v-8.592C80.499,45.107,80.011,44.619,79.407,44.619z M49.999,68.986  c-10.483,0-18.985-8.501-18.985-18.986c0-10.483,8.502-18.981,18.985-18.981c10.488,0,18.987,8.499,18.987,18.981  C68.986,60.485,60.487,68.986,49.999,68.986z"></path></svg>